<svg xmlns="http://www.w3.org/2000/svg" width="504" height="56" viewBox="-0.27 -0.499 504 56" overflow="visible"><path fill="#243A79" stroke="#223A83" d="M5.62 29.701c-.32 0-1.76.16-2.08.16-.4 0-.64-.32-1.36-1.28-.48-.64-.88-.72-1.44-.96-.16-.08-.24-.16-.24-.32 0-.24.16-.32.4-.32h28V11.46H5.62c-.32 0-1.76.16-2.08.16-.48 0-.56-.08-1.2-1.04-.4-.64-.48-.64-1.68-1.2-.08 0-.16-.08-.16-.24 0-.24.16-.32.4-.32h23.12c1.92 0 3.52-.96 4.48-1.84 1.84-1.76 2.88-2.72 5.12-2.72.48 0 5.6 0 5.6 6.64v34.481c0 6.72-5.04 6.72-5.6 6.72-2.24 0-3.36-1.04-5.12-2.72-.72-.64-2.48-1.76-4.48-1.76H5.62c-.32 0-1.76.16-2.08.16-.4 0-.48-.08-1.28-1.2-.4-.56-.48-.56-1.52-1.04-.16-.08-.24-.16-.24-.32 0-.32.24-.32.4-.32h28v-15.2H5.62zM84.82 15.78c-.4 0-2 .24-2.32.24-.4 0-1.36-1.6-1.6-1.84-.24-.16-1.28-.56-1.28-.72 0-.24.16-.4.4-.4h23.601c1.92 0 3.36-.64 4.72-2 1.52-1.44 2.64-2.48 4.96-2.48.48 0 5.6 0 5.6 6.72v27.121c0 6.72-5.12 6.72-5.68 6.72-2.16 0-3.2-.96-4.88-2.48-1.28-1.2-2.8-2-4.72-2H84.98c-.4 0-2.16.16-2.48.16-.4 0-1.52-1.76-1.84-2-.16-.08-1.04-.4-1.04-.56 0-.16.16-.32.4-.32h28.561V15.78H84.82zM166.581 31.621c-5.92 0-9.92-1.84-9.92-3.041 0-.24.16-.32.24-.32s.319.16.479.24c.48.4 1.44.48 1.92.48 4.881 0 13.681-3.52 20.001-11.601 5.12-6.48 6.8-13.28 6.8-14.72 0-.96-.399-1.28-.64-1.52-.16-.08-.24-.24-.24-.32 0-.16.16-.32.32-.32s8.4 3.44 8.4 8.561c.001 4.72-8 22.561-27.36 22.561zm11.36 7.92c0-5.84-.08-6.48-2.16-6.8-.24-.08-.319-.24-.319-.32 0-.4.56-.4 1.68-.4 9.601 0 10.32 2.8 10.32 6.72v10.64c0 2.72-2.24 4.72-4.721 4.72-3.04 0-4.8-2.56-4.8-4.72v-9.84zM236.041 38.917c-3.172 0-5.356-3.224-5.356-7.645 0-8.892 8.477-16.12 16.85-16.12 7.436 0 14.092 5.408 14.092 13.624 0 7.645-5.876 13.521-12.844 13.521-2.965 0-3.381-1.664-3.381-2.028 0-.156.156-.208.208-.208.104 0 .156.052.261.156.207.312.416.364.676.364 1.352 0 9.412-3.38 9.412-11.752 0-5.824-4.108-10.504-9.725-10.504-6.188 0-12.844 4.576-12.844 10.973 0 1.924.884 3.692 2.443 3.692 3.692 0 8.112-9.672 8.112-10.4 0-.156 0-.416-.364-.728-.155-.052-.155-.104-.155-.156 0-.052.052-.208.155-.208.364 0 4.213 2.028 4.213 5.097-.001 2.442-6.137 12.322-11.753 12.322zM299.941 28.501c-2.88 0-6.4-3.68-6.4-8.16 0-5.041 4.08-9.76 4.32-9.76.16 0 .32.08.32.24 0 .32-.32 1.68-.32 1.92 0 2.48 1.84 4.56 3.12 5.92 2.8 2.96 3.28 3.44 3.28 5.76 0 2-1.92 4.08-4.32 4.08zm12.16 21.52c-4.08 0-6.72-1.68-6.72-2.4 0-.16 0-.32.239-.32l.32.16c.24.16.88.4 1.76.4 4.561 0 13.44-6.24 19.281-19.681 2.96-6.8 4.239-13.44 4.239-15.28 0-.88-.159-2-.96-2.48-.239-.08-.319-.16-.319-.32s.08-.32.239-.32c.4 0 2.4.48 4.16 1.36 3.761 1.76 4.16 3.76 4.16 5.76.001 17.441-12.638 33.121-26.399 33.121zM382.5 30.821c-.64 0-3.52.48-4.159.48-.801 0-1.04-.48-1.44-1.84-.72-2.72-1.28-2.8-2.561-3.2-.159 0-.239-.16-.239-.32 0-.24.159-.32.399-.32h29.921c2.24 0 3.36-.24 4.4-1.28 1.439-1.36 2.399-2.32 4.32-2.32 2.88 0 5.04 2.72 5.04 5.04 0 2.08-1.921 3.76-5.521 3.76H382.5zM464.421 15.86c-.4 0-1.921.24-2.24.24-.4 0-1.44-1.68-1.681-1.92-.159-.08-1.199-.48-1.199-.64 0-.24.319-.4.56-.4h12.641c2.96 0 4.16-1.12 5.2-2.16 1.279-1.28 2.64-2.64 5.52-2.64 6.16 0 6.16 5.6 6.16 7.84 0 17.84-13.2 32.161-31.12 32.161-5.44 0-8.16-1.52-8.16-2.4 0-.16.079-.24.159-.24.24 0 1.28.32 1.44.32 5.44 0 26.001-8.16 26.48-30.161h-13.76zm33.92 36.481c-2.72 0-3.6-1.44-6.08-5.52-1.92-3.04-4-6.4-6.96-6.8-.479-.08-.88-.16-.88-.4 0-.48 2.72-.96 4.641-.96 6.96 0 13.28 4.88 13.28 9.84 0 3.36-3.04 3.84-4.001 3.84z"/></svg>